<svg height="512pt" viewBox="0 0 512.00081 512" width="512pt" xmlns="http://www.w3.org/2000/svg"><path d="m511.96875 259.988281c-1.175781 77.015625-36.367188 145.78125-91.210938 191.945313-9.789062 8.242187-24.320312-1.328125-20.691406-13.601563 45.816406-154.792969-42.527344-317.417969-197.320312-363.234375l-62.332032-18.449218c-12.898437-3.816407-14.726562-21.453126-2.804687-27.683594 36.132813-18.882813 77.335937-29.390625 121.03125-28.949219 142.351563 1.433594 255.503906 117.632813 253.328125 259.972656zm0 0" fill="#016a74"/><path d="m511.585938 147.691406-32.773438 110.722656v.003907l-57.011719 192.621093c-44.667969 38.007813-102.550781 60.960938-165.800781 60.960938-141.386719 0-256-114.617188-256-256 0-99.855469 57.179688-186.347656 140.574219-228.550781l336.628906 99.636719 27.632813 8.179687c5.296874 1.566406 8.316406 7.128906 6.75 12.425781zm0 0" fill="#fbc56d"/><path d="m412.378906 458.667969c-43.253906 33.425781-97.484375 53.332031-156.378906 53.332031-141.386719 0-256-114.617188-256-256 0-95.382812 52.171875-178.570312 129.53125-222.609375-60.539062 46.820313-99.53125 120.15625-99.53125 202.609375 0 141.382812 114.613281 256 256 256 45.964844 0 89.09375-12.125 126.378906-33.332031zm-137.527344-346.707031c15.90625 4.648437 32.5625-4.476563 37.210938-20.382813l3.597656-12.304687-57.535156-17.03125-3.652344 12.507812c-4.648437 15.90625 4.476563 32.566406 20.378906 37.210938zm0 0" fill="#ebae56"/><path d="m372.128906 284.945312c0 80.777344-65.484375 146.261719-146.265625 146.261719-80.777343 0-146.261719-65.484375-146.261719-146.261719 0-80.78125 65.484376-146.261718 146.261719-146.261718 80.78125 0 146.265625 65.480468 146.265625 146.261718zm0 0" fill="#ebae56"/><path d="m225.863281 128.683594c-86.300781 0-156.261719 69.960937-156.261719 156.261718 0 86.300782 69.960938 156.261719 156.261719 156.261719s156.265625-69.960937 156.265625-156.261719c0-86.300781-69.964844-156.261718-156.265625-156.261718zm-112.855469 209.4375c-1.777343-1.289063-2.710937-3.402344-2.464843-5.585938.429687-3.8125.101562-7.777344-1.101563-11.679687-1.648437-5.347657-4.71875-9.867188-8.667968-13.269531-2.140626-1.84375-2.617188-5.015626-1.117188-7.40625 2.769531-4.414063 4.375-9.636719 4.375-15.234376 0-4.480468-1.027344-8.722656-2.859375-12.5-1.058594-2.1875-.734375-4.742187.839844-6.59375 2.714843-3.199218 4.769531-7.050781 5.890625-11.390624 1.023437-3.953126 1.167968-7.925782.5625-11.714844-.351563-2.171875.484375-4.328125 2.203125-5.695313 2.40625-1.917969 4.527343-4.253906 6.261719-6.964843l95.015624 54.859374-96.132812 55.5c-.890625-.835937-1.824219-1.617187-2.804688-2.324218zm105.898438 69.519531c-1.929688.480469-3.789062 1.144531-5.542969 1.996094-2.183593 1.058593-4.742187.734375-6.589843-.839844-3.203126-2.714844-7.050782-4.769531-11.390626-5.890625-3.953124-1.023438-7.929687-1.167969-11.71875-.558594-2.167968.347656-4.324218-.488281-5.691406-2.207031-2.390625-3-5.425781-5.570313-9.039062-7.480469-4.949219-2.613281-10.3125-3.636718-15.511719-3.25-2.816406.207032-5.398437-1.699218-6.027344-4.449218-1.164062-5.082032-3.722656-9.910157-7.679687-13.867188-3.167969-3.167969-6.894532-5.441406-10.859375-6.820312-2.292969-.796876-3.871094-2.832032-4.070313-5.253907-.1875-2.304687-.667968-4.605469-1.433594-6.855469l95.554688-55.164062zm0-134.75-97.5-56.292969c.09375-1.371094.09375-2.738281-.007812-4.097656-.207032-2.8125 1.699218-5.394531 4.449218-6.023438 5.082032-1.164062 9.910156-3.726562 13.867188-7.683593 3.167968-3.167969 5.441406-6.890625 6.820312-10.859375.796875-2.292969 2.832032-3.871094 5.253906-4.066406 4.183594-.34375 8.359376-1.613282 12.21875-3.886719 3.519532-2.074219 6.429688-4.78125 8.679688-7.890625 1.289062-1.78125 3.40625-2.714844 5.585938-2.46875 3.816406.433594 7.777343.105468 11.679687-1.097656 5.351563-1.652344 9.867187-4.722657 13.269531-8.671876 1.84375-2.136718 5.015625-2.617187 7.40625-1.117187 2.523438 1.582031 5.3125 2.765625 8.277344 3.507813zm13.917969-110.640625c1.929687-.480469 3.789062-1.148438 5.542969-2 2.183593-1.058594 4.738281-.730469 6.589843.839844 3.203125 2.714844 7.050781 4.769531 11.390625 5.890625 3.953125 1.023437 7.925782 1.167969 11.71875.558593 2.167969-.347656 4.324219.488282 5.691406 2.207032 2.390626 3.003906 5.425782 5.570312 9.039063 7.480468 4.945313 2.617188 10.3125 3.636719 15.511719 3.253907 2.816406-.210938 5.394531 1.695312 6.027344 4.445312 1.164062 5.082031 3.722656 9.910157 7.679687 13.867188 3.167969 3.167969 6.894531 5.441406 10.859375 6.820312 2.292969.796875 3.871094 2.835938 4.070312 5.253907.1875 2.304687.667969 4.605468 1.433594 6.855468l-95.554687 55.167969zm93.058593 201.164062c-5.082031 1.164063-9.910156 3.722657-13.867187 7.679688-3.167969 3.167969-5.441406 6.894531-6.820313 10.859375-.796874 2.296875-2.832031 3.871094-5.253906 4.070313-4.183594.34375-8.359375 1.609374-12.21875 3.886718-3.519531 2.074219-6.433594 4.78125-8.683594 7.890625-1.285156 1.777344-3.402343 2.714844-5.582031 2.464844-3.816406-.429687-7.777343-.101563-11.679687 1.101563-5.351563 1.652343-9.867188 4.722656-13.269532 8.671874-1.84375 2.136719-5.015624 2.613282-7.40625 1.113282-2.523437-1.578125-5.3125-2.765625-8.277343-3.503906v-110.648438l97.5 56.289062c-.097657 1.371094-.097657 2.742188.003906 4.097657.210937 2.816406-1.695313 5.398437-4.445313 6.027343zm24.675782-65.96875c1.058594 2.183594.730468 4.742188-.839844 6.589844-2.714844 3.203125-4.769531 7.050782-5.890625 11.390625-1.023437 3.953125-1.167969 7.929688-.558594 11.71875.347657 2.167969-.488281 4.324219-2.207031 5.691407-2.40625 1.917968-4.527344 4.253906-6.261719 6.964843l-95.015625-54.855469 96.132813-55.503906c.890625.835938 1.824219 1.617188 2.804687 2.328125 1.777344 1.285157 2.714844 3.402344 2.464844 5.582031-.429688 3.816407-.101562 7.777344 1.101562 11.679688 1.648438 5.351562 4.722657 9.867188 8.671876 13.269531 2.136718 1.84375 2.613281 5.015625 1.113281 7.40625-2.769531 4.417969-4.375 9.640625-4.375 15.238281 0 4.480469 1.027343 8.71875 2.859375 12.5zm0 0" fill="#ce9047"/><path d="m269.863281 238.945312c0 5.519532-4.476562 10-10 10-5.519531 0-10-4.480468-10-10 0-5.523437 4.480469-10 10-10 5.523438 0 10 4.476563 10 10zm-20-40c5.523438 0 10-4.480468 10-10 0-5.523437-4.476562-10-10-10-5.519531 0-10 4.476563-10 10 0 5.519532 4.480469 10 10 10zm30 90c-5.519531 0-10 4.476563-10 10 0 5.519532 4.480469 10 10 10 5.523438 0 10-4.480468 10-10 0-5.523437-4.476562-10-10-10zm-90 0c-5.519531 0-10 4.476563-10 10 0 5.519532 4.480469 10 10 10 5.523438 0 10-4.480468 10-10 0-5.523437-4.476562-10-10-10zm0-40c0-5.523437-4.476562-10-10-10-5.519531 0-10 4.476563-10 10 0 5.519532 4.480469 10 10 10 5.523438 0 10-4.480468 10-10zm-10-50c5.523438 0 10-4.480468 10-10 0-5.523437-4.476562-10-10-10-5.519531 0-10 4.476563-10 10 0 5.519532 4.480469 10 10 10zm-20 130c-5.519531 0-10 4.476563-10 10 0 5.519532 4.480469 10 10 10 5.523438 0 10-4.480468 10-10 0-5.523437-4.476562-10-10-10zm-20-90c-5.519531 0-10 4.476563-10 10 0 5.519532 4.480469 10 10 10 5.523438 0 10-4.480468 10-10 0-5.523437-4.476562-10-10-10zm110 80c-5.519531 0-10 4.476563-10 10 0 5.519532 4.480469 10 10 10 5.523438 0 10-4.480468 10-10 0-5.523437-4.476562-10-10-10zm-40 60c-5.519531 0-10 4.476563-10 10 0 5.519532 4.480469 10 10 10 5.523438 0 10-4.480468 10-10 0-5.523437-4.476562-10-10-10zm0 0" fill="#dca050"/><path d="m119.863281 208.945312c0-11.046874 8.957031-20 20-20 11.046875 0 20 8.953126 20 20 0 11.042969-8.953125 20-20 20-11.042969 0-20-8.957031-20-20zm90-20c-11.042969 0-20 8.953126-20 20 0 11.042969 8.957031 20 20 20 11.046875 0 20-8.957031 20-20 0-11.046874-8.953125-20-20-20zm0 130c-11.042969 0-20 8.953126-20 20 0 11.042969 8.957031 20 20 20 11.046875 0 20-8.957031 20-20 0-11.046874-8.953125-20-20-20zm-50 40c-11.042969 0-20 8.953126-20 20 0 11.042969 8.957031 20 20 20 11.046875 0 20-8.957031 20-20 0-11.046874-8.953125-20-20-20zm150-170c0-11.046874-8.953125-20-20-20-11.042969 0-20 8.953126-20 20 0 11.042969 8.957031 20 20 20 11.046875 0 20-8.957031 20-20zm-40 150c-11.042969 0-20 8.953126-20 20 0 11.042969 8.957031 20 20 20 11.046875 0 20-8.957031 20-20 0-11.046874-8.953125-20-20-20zm-110-50c0-11.046874-8.953125-20-20-20-11.042969 0-20 8.953126-20 20 0 11.042969 8.957031 20 20 20 11.046875 0 20-8.957031 20-20zm160-30c-11.042969 0-20 8.953126-20 20 0 11.042969 8.957031 20 20 20 11.046875 0 20-8.957031 20-20 0-11.046874-8.953125-20-20-20zm0 0" fill="#ed6161"/></svg>