<svg height="512pt" viewBox="0 0 512.00005 512" width="512pt" xmlns="http://www.w3.org/2000/svg"><path d="m512 256c0 141.386719-114.613281 256-256 256s-256-114.613281-256-256 114.613281-256 256-256 256 114.613281 256 256zm0 0" fill="#00B917"/><path d="m322.550781 374.269531-1.578125 32.695313c.011719 0 .019532 0 .027344-.003906v40.53125c0 12.699218-9.703125 23.375-22.363281 24.386718-77.949219 6.21875-158.027344-20.476562-217.652344-80.101562-59.628906-59.625-86.320313-139.707032-80.101563-217.65625 1.007813-12.65625 11.683594-22.363282 24.382813-22.363282h37.285156l35.765625-1.722656c16.546875-.796875 30.609375 11.972656 31.40625 28.519532l2.976563 61.792968c.796875 16.546875-11.972657 30.609375-28.519531 31.40625l-28.839844 1.390625c10.480468 27.46875 26.765625 53.234375 48.902344 75.371094 22.089843 22.085937 47.789062 38.355469 75.191406 48.835937l1.394531-28.945312c.796875-16.550781 14.859375-29.320312 31.410156-28.523438l61.789063 2.976563c16.546875.796875 29.320312 14.859375 28.523437 31.410156zm0 0" fill="#e84444"/><path d="m322.148438 382.59375-1.175782 24.371094c-40.355468 8.472656-82.664062 5.257812-121.539062-9.613282l1.261718-26.152343c37.789063 16.179687 80.257813 19.90625 121.453126 11.394531zm-246.808594-109.449219 26.144531-1.257812c-16.140625-37.804688-19.832031-80.269531-11.28125-121.460938l-27.652344 1.332031h3.246094c-8.464844 40.300782-5.273437 82.554688 9.542969 121.386719zm23.320312 100.953125c-59.628906-59.625-86.320312-139.707031-80.101562-217.652344.109375-1.34375.34375-2.640624.660156-3.910156-9.886719 2.511719-17.492188 11.007813-18.335938 21.585938-6.21875 77.949218 20.472657 158.027344 80.101563 217.652344 59.625 59.628906 139.703125 86.320312 217.652344 80.105468 10.582031-.847656 19.074219-8.453125 21.585937-18.339844-1.269531.316407-2.566406.554688-3.90625.660157-77.949218 6.21875-158.03125-20.472657-217.65625-80.101563zm0 0" fill="#d73131"/><path d="m390 70v140c0 5.523438-4.476562 10-10 10h-190c-5.523438 0-10-4.476562-10-10v-20h-27.34375c-6.988281 0-12.65625-5.664062-12.65625-12.65625 0-4.542969 2.433594-8.734375 6.378906-10.988281l33.621094-19.210938v-77.144531c0-5.523438 4.476562-10 10-10h190c5.523438 0 10 4.476562 10 10zm0 0" fill="#0995a3"/><path d="m211.859375 220h-21.859375c-5.523438 0-10-4.476562-10-10v-20h-27.34375c-6.988281 0-12.65625-5.664062-12.65625-12.65625 0-4.542969 2.433594-8.734375 6.378906-10.988281l33.621094-19.210938v-77.144531c0-5.523438 4.476562-10 10-10h21.859375c-5.523437 0-10 4.476562-10 10v140c0 5.523438 4.476563 10 10 10zm0 0" fill="#00808a"/><path d="m215 87.5c0 4.140625-3.359375 7.5-7.5 7.5s-7.5-3.359375-7.5-7.5 3.359375-7.5 7.5-7.5 7.5 3.359375 7.5 7.5zm15-7.5c-4.140625 0-7.5 3.359375-7.5 7.5s3.359375 7.5 7.5 7.5 7.5-3.359375 7.5-7.5-3.359375-7.5-7.5-7.5zm22.5 0c-4.140625 0-7.5 3.359375-7.5 7.5s3.359375 7.5 7.5 7.5 7.5-3.359375 7.5-7.5-3.359375-7.5-7.5-7.5zm0 0" fill="#016a74"/><path d="m450 130v150c0 5.523438-4.476562 10-10 10h-190c-5.523438 0-10-4.476562-10-10v-150c0-5.523438 4.476562-10 10-10h190c5.523438 0 10 4.476562 10 10zm0 0" fill="#ffe899"/><path d="m450 130v150c0 5.523438-4.476562 10-10 10h-117.144531l-19.210938 33.621094c-2.253906 3.945312-6.449219 6.378906-10.988281 6.378906-6.988281 0-12.65625-5.664062-12.65625-12.65625v-27.34375h-10c-5.523438 0-10-4.476562-10-10v-150c0-5.523438 4.476562-10 10-10h170c5.523438 0 10 4.476562 10 10zm0 0" fill="#fff2b4"/><path d="m420 205c0 35.898438-29.101562 65-65 65s-65-29.101562-65-65 29.101562-65 65-65 65 29.101562 65 65zm0 0" fill="#fc544d"/><path d="m407.109375 147.417969v31.347656c0 9.035156-5.152344 16.855469-12.679687 20.707031v57.21875c-6.25 4.777344-13.390626 8.441406-21.132813 10.707032v-67.929688c-7.523437-3.847656-12.679687-11.671875-12.679687-20.703125v-31.347656c0-.972657.789062-1.761719 1.761718-1.761719 5.253906 0 9.511719 4.257812 9.511719 9.511719v19.019531c0 1.75 1.417969 3.167969 3.167969 3.167969s3.171875-1.417969 3.171875-3.167969v-19.464844c0-3.449218 1.777343-6.652344 4.699219-8.484375.574218-.355469 1.296874-.355469 1.867187 0 2.925781 1.828125 4.703125 5.035157 4.703125 8.484375v19.464844c0 1.75 1.417969 3.167969 3.171875 3.167969 1.75 0 3.167969-1.417969 3.167969-3.167969v-19.019531c0-5.253907 4.257812-9.511719 9.511718-9.511719.972657 0 1.757813.789062 1.757813 1.761719zm0 0" fill="#e1ebf0"/><path d="m384.550781 199.90625v63.011719c-3.574219 1.828125-7.335937 3.335937-11.253906 4.480469v-67.925782c-7.523437-3.851562-12.679687-11.671875-12.679687-20.707031v-31.347656c0-.972657.789062-1.761719 1.761718-1.761719 5.058594 0 9.191406 3.949219 9.488282 8.929688v16.433593s.007812 2.027344.019531 2.332031c0 0 .050781 1.460938.136719 1.753907.683593 5.960937 3.625 11.234375 7.949218 14.949219 2.878906 2.476562 4.578125 6.054687 4.578125 9.851562zm-38.285156-42.160156c-2.308594-9.234375-10.609375-15.71875-20.128906-15.71875-9.523438 0-17.824219 6.480468-20.132813 15.71875l-2.421875 9.683594c-.460937 1.84375-.695312 3.738281-.695312 5.640624v5.589844c0 9.03125 5.15625 16.855469 12.679687 20.703125v57.328125c6.25 4.777344 13.394532 8.441406 21.132813 10.707032v-68.035157c7.527343-3.847656 12.683593-11.671875 12.683593-20.703125v-5.59375c0-1.898437-.234374-3.792968-.695312-5.636718zm0 0" fill="#b4d2d7"/><path d="m349.382812 173.070312v5.589844c0 2.039063-.265624 4.011719-.757812 5.898438-3.859375 4-8.925781 6.429687-14.476562 6.429687-12.109376 0-21.925782-11.550781-21.925782-25.800781 0-10.105469 4.941406-18.847656 12.132813-23.082031.585937-.050781 1.179687-.074219 1.78125-.074219 9.519531 0 17.820312 6.480469 20.132812 15.71875l2.417969 9.683594c.460938 1.839844.695312 3.734375.695312 5.636718zm-17.582031 37.09375c-2.730469 0-4.941406 2.210938-4.941406 4.941407v48.53125c3.148437 1.515625 6.441406 2.765625 9.84375 3.761719v-52.886719c-.296875-2.449219-2.375-4.347657-4.902344-4.347657zm0 0" fill="#e1ebf0"/></svg>
